<svg width="250" height="250" viewBox="0 0 250 250" fill="none" xmlns="http://www.w3.org/2000/svg">
<path d="M101.859 121.295V90.3208M143.154 121.295V90.3208M84.4692 121.295H160.531V141.777C160.531 151.864 156.524 161.537 149.392 168.669C142.26 175.801 132.586 179.808 122.5 179.808C112.414 179.808 102.74 175.801 95.6082 168.669C88.476 161.537 84.4692 151.864 84.4692 141.777V121.295Z" stroke="#843BE0" stroke-width="20" stroke-linecap="round" stroke-linejoin="round"/>
<path d="M122.5 179.795V207.875C122.5 215.169 128.446 221.195 135.661 220.045C156.111 216.68 174.548 205.753 187.317 189.43C200.086 173.106 206.254 152.581 204.598 131.923C202.941 111.265 193.581 91.9839 178.374 77.9042C163.167 63.8244 143.224 55.9743 122.5 55.9108C104.314 55.904 86.6334 61.9002 72.2033 72.9689C57.7731 84.0376 47.3999 99.5598 42.6935 117.127C37.987 134.694 39.2104 153.323 46.1739 170.123C53.1374 186.924 65.4515 200.956 81.2053 210.042" stroke="#843BE0" stroke-width="20" stroke-linecap="square" stroke-linejoin="round"/>
<rect x="187.887" y="48.921" width="20.0877" height="20.8019" transform="rotate(45.1821 187.887 48.921)" fill="#843BE0"/>
<rect x="89" y="13" width="62" height="21" fill="#843BE0"/>
</svg>
